<svg xmlns="http://www.w3.org/2000/svg" xmlns:xlink="http://www.w3.org/1999/xlink" viewBox="0 0 1000 1000" width="1000" height="1000" style="width: 100%; height: 100%; transform: translate3d(0px, 0px, 0px); content-visibility: visible;" preserveAspectRatio="xMidYMid meet" id="Google"><defs><clipPath id="__lottie_element_3535"><rect width="1000" height="1000" x="0" y="0"/></clipPath></defs><g clip-path="url(#__lottie_element_3535)"><g style="display: block;" transform="matrix(1,0,0,1,505.3780212402344,451.92596435546875)" opacity="1"><g opacity="1" transform="matrix(1,0,0,1,125.43599700927734,123.98100280761719)"><path fill="rgb(81,142,248)" fill-opacity="1" d=" M120.71299743652344,-123.73100280761719 C120.71299743652344,-123.73100280761719 13.699999809265137,-123.73100280761719 13.699999809265137,-123.73100280761719 C13.699999809265137,-123.73100280761719 -125.18599700927734,-123.73100280761719 -125.18599700927734,-123.73100280761719 C-125.18599700927734,-123.73100280761719 -125.18599700927734,-22.45599937438965 -125.18599700927734,-22.45599937438965 C-125.18599700927734,-22.45599937438965 11.70300006866455,-22.45599937438965 11.70300006866455,-22.45599937438965 C-0.6179999709129333,10.430000305175781 -24.01099967956543,37.9010009765625 -53.94200134277344,55.45600128173828 C-53.94200134277344,55.45600128173828 -53.94200134277344,55.457000732421875 -53.94200134277344,55.457000732421875 C-53.94200134277344,55.457000732421875 29.43899917602539,123.71700286865234 29.43899917602539,123.71700286865234 C29.43899917602539,123.71700286865234 29.440000534057617,123.71700286865234 29.440000534057617,123.71700286865234 C29.440000534057617,123.71700286865234 29.452999114990234,123.73100280761719 29.452999114990234,123.73100280761719 C74.56300354003906,87.46900177001953 107.1259994506836,36.22700119018555 119.58799743652344,-22.45599937438965 C123.25900268554688,-39.70100021362305 125.18599700927734,-57.57899856567383 125.18599700927734,-75.90699768066406 C125.18599700927734,-92.25199890136719 123.6520004272461,-108.24500274658203 120.71299743652344,-123.73100280761719z"/></g></g><g style="display: block;" transform="matrix(1,0,0,1,274.2590026855469,553.157958984375)" opacity="1"><g opacity="1" transform="matrix(1,0,0,1,193.12899780273438,101.5459976196289)"><path fill="rgb(40,180,70)" fill-opacity="1" d=" M192.86500549316406,44.91899871826172 C192.86500549316406,44.91899871826172 192.86500549316406,44.91899871826172 192.86500549316406,44.91899871826172 C192.86500549316406,44.91899871826172 109.48400115966797,-23.340999603271484 109.48400115966797,-23.340999603271484 C109.48400115966797,-23.340999603271484 109.48200225830078,-23.343000411987305 109.48200225830078,-23.343000411987305 C86.93499755859375,-10.107000350952148 60.659000396728516,-2.5250000953674316 32.61199951171875,-2.5250000953674316 C-32.63999938964844,-2.5250000953674316 -88.29900360107422,-43.597999572753906 -109.91799926757812,-101.2959976196289 C-109.91799926757812,-101.2959976196289 -192.8780059814453,-33.387001037597656 -192.8780059814453,-33.387001037597656 C-192.8780059814453,-33.387001037597656 -192.87899780273438,-33.38600158691406 -192.87899780273438,-33.38600158691406 C-149.63999938964844,46.80400085449219 -64.87899780273438,101.2959976196289 32.61199951171875,101.2959976196289 C93.27799987792969,101.2959976196289 149.00900268554688,80.1969985961914 192.87899780273438,44.933998107910156 C192.87899780273438,44.933998107910156 192.86500549316406,44.91899871826172 192.86500549316406,44.91899871826172z"/></g></g><g style="display: block;" transform="matrix(1,0,0,1,243.74998474121094,382.01800537109375)" opacity="1"><g opacity="1" transform="matrix(1,0,0,1,56.98500061035156,119.7750015258789)"><path fill="rgb(250,186,0)" fill-opacity="1" d=" M56.73500061035156,51.6150016784668 C50.4900016784668,35.00400161743164 47.08599853515625,16.999000549316406 47.08399963378906,-1.7929999828338623 C47.08399963378906,-19.107999801635742 49.981998443603516,-35.74800109863281 55.29899978637695,-51.249000549316406 C55.29899978637695,-51.249000549316406 55.29800033569336,-51.250999450683594 55.29800033569336,-51.250999450683594 C55.29800033569336,-51.250999450683594 -28.097000122070312,-119.5250015258789 -28.097000122070312,-119.5250015258789 C-28.097000122070312,-119.5250015258789 -28.111000061035156,-119.5250015258789 -28.111000061035156,-119.5250015258789 C-46.4109992980957,-84.2760009765625 -56.73500061035156,-44.24399948120117 -56.73500061035156,-1.7929999828338623 C-56.73500061035156,42.106998443603516 -45.69300079345703,83.41799926757812 -26.22599983215332,119.5250015258789 C-26.22599983215332,119.5250015258789 -26.225000381469727,119.5250015258789 -26.225000381469727,119.5250015258789 C-26.225000381469727,119.5250015258789 56.73500061035156,51.61600112915039 56.73500061035156,51.61600112915039 C56.73500061035156,51.61600112915039 56.73500061035156,51.6150016784668 56.73500061035156,51.6150016784668z"/></g></g><g style="display: block;" transform="matrix(1.0008761882781982,0,0,1.0008761882781982,272.20257568359375,243.35006713867188)" opacity="0.9987115202013346"><g opacity="1" transform="matrix(1,0,0,1,195.63999938964844,103.52200317382812)"><path fill="rgb(240,67,54)" fill-opacity="1" d=" M31.986000061035156,-103.27200317382812 C-66.9540023803711,-103.27200317382812 -152.78399658203125,-47.14899826049805 -195.38999938964844,34.99599838256836 C-195.38999938964844,34.99599838256836 -195.37600708007812,34.99599838256836 -195.37600708007812,34.99599838256836 C-195.37600708007812,34.99599838256836 -111.98100280761719,103.2699966430664 -111.98100280761719,103.2699966430664 C-111.98100280761719,103.2699966430664 -111.97899627685547,103.27200317382812 -111.97899627685547,103.27200317382812 C-91.44300079345703,43.505001068115234 -34.74300003051758,0.5479999780654907 31.986000061035156,0.5479999780654907 C61.53799819946289,0.5479999780654907 89.12200164794922,8.973999977111816 112.45700073242188,23.559999465942383 C112.45700073242188,23.559999465942383 195.38999938964844,-44.33599853515625 195.38999938964844,-44.33599853515625 C151.0540008544922,-81.14600372314453 94.10099792480469,-103.27200317382812 31.986000061035156,-103.27200317382812z"/></g></g></g></svg>